<svg width="168" height="40" viewBox="0 0 168 40" fill="none" xmlns="http://www.w3.org/2000/svg">
<g clip-path="url(#clip0_588_1458)">
<path d="M26.7412 38.7902C37.0917 35.0168 42.4229 23.5334 38.6419 13.1541C34.8987 2.78448 23.4611 -2.56358 13.1106 1.20982C2.76954 4.98323 -2.55224 16.4667 1.20987 26.8363C4.97198 37.2252 16.4096 42.5732 26.7412 38.7998V38.7902ZM29.3406 6.27943C30.4938 7.06676 31.5336 7.99811 32.46 9.06388L15.7479 15.1705L12.2977 16.4379L13.5643 19.904L14.831 23.3702L16.0976 26.8363L19.5478 25.5689L36.5435 19.3663C36.6002 20.7393 36.4773 22.1028 36.1937 23.4182L20.7955 29.0447L17.3454 30.3121L18.612 33.7782L19.6612 36.6683C18.2528 36.6395 16.8727 36.4379 15.5305 36.073L7.58088 14.2199L29.3406 6.27943ZM35.532 14.3063C35.6927 14.748 35.8345 15.1993 35.9574 15.6505L18.2717 22.1124L17.0051 18.6462L34.5962 12.2228C34.9554 12.8757 35.2579 13.567 35.5226 14.3063H35.532ZM23.4139 36.3034L22.0433 32.5204L34.5206 27.9597C32.649 31.4163 29.5769 34.2295 25.6069 35.6697C24.879 35.9386 24.1417 36.1498 23.4139 36.313V36.3034ZM24.7183 4.04228L6.04011 10.8594C7.94007 7.9501 10.7475 5.61693 14.2544 4.33992C17.7613 3.06292 21.4005 3.03412 24.7278 4.03268L24.7183 4.04228ZM4.02672 15.1993L10.8326 33.9319C7.94007 32.0212 5.61475 29.2079 4.33866 25.6937C3.06256 22.17 3.03421 18.531 4.03618 15.1993H4.02672Z" fill="url(#paint0_linear_588_1458)"/>
<path d="M69.2401 7.43164V10.7058H58.8895V17.9165H66.9526V21.1906H58.8895V31.8868H54.8911V7.43164H69.2306H69.2401Z" fill="#4C4D4F"/>
<path d="M72.5767 9.1886C72.0851 8.69892 71.8394 8.08442 71.8394 7.35471C71.8394 6.62499 72.0851 6.02009 72.5767 5.52081C73.0682 5.03113 73.6826 4.78149 74.401 4.78149C75.1194 4.78149 75.696 5.03113 76.1875 5.52081C76.6791 6.01049 76.9248 6.62499 76.9248 7.35471C76.9248 8.08442 76.6791 8.68932 76.1875 9.1886C75.696 9.68788 75.1005 9.92792 74.401 9.92792C73.7015 9.92792 73.0682 9.67828 72.5767 9.1886ZM76.3671 12.5011V31.8962H72.3687V12.5011H76.3671Z" fill="#4C4D4F"/>
<path d="M94.8657 13.1254C96.0756 13.7591 97.002 14.6904 97.692 15.9386C98.3726 17.1868 98.7129 18.6846 98.7129 20.4417V31.8772H94.7523V21.037C94.7523 19.2991 94.3174 17.9741 93.4573 17.0428C92.5971 16.1114 91.4061 15.6506 89.9126 15.6506C88.4191 15.6506 87.228 16.1114 86.3489 17.0428C85.4699 17.9741 85.035 19.2991 85.035 21.037V31.8772H81.0366V12.4917H85.035V14.7096C85.6873 13.9223 86.5285 13.2886 87.54 12.8469C88.5608 12.4052 89.6479 12.1748 90.7822 12.1748C92.2946 12.1748 93.6558 12.4917 94.8657 13.1254Z" fill="#4C4D4F"/>
<path d="M111.294 15.7657H107.721V31.8867H103.685V15.7657H101.407V12.4916H103.685V11.1186C103.685 8.88142 104.28 7.26836 105.452 6.241C106.625 5.22324 108.487 4.71436 111.011 4.71436V8.05569C109.801 8.05569 108.94 8.28613 108.449 8.7374C107.957 9.19827 107.712 9.9856 107.712 11.109V12.482H111.285V15.7561L111.294 15.7657Z" fill="#4C4D4F"/>
<path d="M114.12 16.9276C114.924 15.4297 116.03 14.2487 117.419 13.423C118.809 12.5973 120.35 12.1748 122.032 12.1748C123.554 12.1748 124.877 12.4725 126.012 13.0677C127.155 13.663 128.044 14.4024 128.734 15.3049V12.4917H132.77V31.8868H128.734V28.9967C128.053 29.9088 127.137 30.6674 125.964 31.2819C124.792 31.8964 123.46 32.194 121.966 32.194C120.302 32.194 118.79 31.7715 117.41 30.9074C116.02 30.0433 114.933 28.8527 114.13 27.3164C113.326 25.7898 112.92 24.0423 112.92 22.0932C112.92 20.1441 113.326 18.435 114.13 16.918L114.12 16.9276ZM127.902 18.6846C127.363 17.6957 126.636 16.9468 125.747 16.4283C124.849 15.9194 123.904 15.6506 122.873 15.6506C121.843 15.6506 120.888 15.9002 120 16.4091C119.102 16.918 118.383 17.6573 117.845 18.627C117.306 19.5968 117.022 20.7586 117.022 22.0932C117.022 23.4278 117.306 24.6088 117.845 25.617C118.383 26.6155 119.121 27.3932 120.019 27.9213C120.917 28.4494 121.881 28.7086 122.873 28.7086C123.866 28.7086 124.858 28.4398 125.747 27.9309C126.645 27.422 127.363 26.6635 127.902 25.665C128.45 24.6664 128.725 23.5046 128.725 22.1604C128.725 20.8162 128.441 19.664 127.902 18.675V18.6846Z" fill="#4C4D4F"/>
<path d="M143.754 13.0101C144.718 12.4628 145.871 12.1843 147.204 12.1843V16.3418H146.183C144.624 16.3418 143.433 16.7451 142.629 17.542C141.826 18.3293 141.419 19.7215 141.419 21.6995V31.9059H137.421V12.4916H141.419V15.3048C141.996 14.3159 142.771 13.5669 143.754 13.0005V13.0101Z" fill="#4C4D4F"/>
<path d="M167.858 23.687H153.094C153.216 25.2328 153.774 26.481 154.814 27.422C155.844 28.3533 157.111 28.8334 158.604 28.8334C160.76 28.8334 162.272 27.9404 163.16 26.1258H167.471C166.894 27.902 165.826 29.3615 164.295 30.5041C162.773 31.6466 160.854 32.2131 158.595 32.2131C156.752 32.2131 155.088 31.7907 153.632 30.9649C152.177 30.1392 151.023 28.9582 150.192 27.4412C149.369 25.9241 148.944 24.167 148.944 22.1795C148.944 20.192 149.35 18.4349 150.154 16.9179C150.957 15.4008 152.101 14.2391 153.557 13.4133C155.012 12.5876 156.695 12.1843 158.595 12.1843C160.495 12.1843 162.045 12.5876 163.472 13.3845C164.89 14.1718 166.015 15.3048 166.8 16.7451C167.584 18.1853 167.991 19.8464 167.991 21.7283C167.991 22.4676 167.934 23.1205 167.849 23.6966L167.858 23.687ZM163.822 20.4512C163.803 18.9726 163.274 17.7916 162.244 16.8987C161.213 16.0057 159.947 15.5641 158.425 15.5641C157.045 15.5641 155.863 16.0057 154.88 16.8795C153.897 17.7628 153.32 18.9534 153.122 20.4512H163.822Z" fill="#4C4D4F"/>
</g>
<defs>
<linearGradient id="paint0_linear_588_1458" x1="10.1425" y1="37.4172" x2="30.1843" y2="2.84312" gradientUnits="userSpaceOnUse">
<stop stop-color="#0B5F4F"/>
<stop offset="1" stop-color="#02B793"/>
</linearGradient>
<clipPath id="clip0_588_1458">
<rect width="168" height="40" fill="white"/>
</clipPath>
</defs>
</svg>
